<?xml version="1.0" encoding="UTF-8"?>
<svg id="Layer_2" data-name="Layer 2" xmlns="http://www.w3.org/2000/svg" xmlns:xlink="http://www.w3.org/1999/xlink" viewBox="0 0 530.93 530.93">
  <defs>
    <style>
      .cls-1 {
        fill: none;
      }

      .cls-2 {
        opacity: .1;
      }

      .cls-2, .cls-3, .cls-4 {
        fill: #fff;
      }

      .cls-5 {
        clip-path: url(#clippath);
      }

      .cls-6 {
        fill: #f6fcff;
      }

      .cls-7 {
        fill: #e5f0ff;
      }

      .cls-8 {
        fill: #7d7d7d;
      }

      .cls-9 {
        fill: #d13621;
      }

      .cls-10 {
        fill: #c4c4c4;
      }

      .cls-11 {
        fill: #067919;
      }

      .cls-12 {
        fill: #0b3d91;
        opacity: .8;
      }

      .cls-4 {
        opacity: .3;
      }
    </style>
    <clipPath id="clippath">
      <circle class="cls-1" cx="265.47" cy="265.47" r="265.47"/>
    </clipPath>
  </defs>
  <g id="Layer_2-2" data-name="Layer 2">
    <circle class="cls-7" cx="265.47" cy="265.47" r="265.47"/>
    <g class="cls-5">
      <path class="cls-6" d="m470.39,364.79c-47.35,0-88.62,26-110.33,64.51-16.63-10.55-36.34-16.66-57.49-16.66-39.87,0-74.67,21.71-93.22,53.96-9.44-4.59-20.03-7.17-31.23-7.17-39.51,0-71.54,32.03-71.54,71.54s32.03,71.54,71.54,71.54c15.66,0,30.13-5.04,41.91-13.58,19.72,23.62,49.37,38.66,82.55,38.66s64.76-16.02,84.44-40.98c22.27,19.51,51.44,31.35,83.38,31.35,69.91,0,126.58-56.67,126.58-126.58s-56.67-126.58-126.58-126.58Z"/>
    </g>
  </g>
  <g id="Layer_1-2" data-name="Layer 1">
    <g>
      <circle class="cls-3" cx="265.47" cy="265.47" r="95.95"/>
      <path class="cls-11" d="m265.47,366.41c-55.66,0-100.95-45.29-100.95-100.95s45.29-100.95,100.95-100.95,100.95,45.29,100.95,100.95-45.29,100.95-100.95,100.95Zm0-191.9c-50.15,0-90.95,40.8-90.95,90.95s40.8,90.95,90.95,90.95,90.95-40.8,90.95-90.95-40.8-90.95-90.95-90.95Z"/>
    </g>
    <path class="cls-11" d="m254.14,300.29h0c-1.64,0-3.17-.8-4.1-2.14l-18.91-27.13c-1.58-2.27-1.02-5.38,1.24-6.96s5.38-1.02,6.96,1.24l14.81,21.25,37.46-53.75c1.58-2.27,4.69-2.82,6.96-1.24,2.27,1.58,2.82,4.7,1.24,6.96l-41.56,59.64c-.93,1.34-2.47,2.14-4.1,2.14Z"/>
    <polygon class="cls-3" points="85.04 104.67 86.06 107.92 89.31 108.92 86.54 110.89 86.6 114.3 83.86 112.27 80.64 113.38 81.72 110.15 79.67 107.43 83.08 107.46 85.04 104.67"/>
    <polygon class="cls-3" points="321.61 40.2 323.4 43.09 326.8 43.26 324.6 45.86 325.5 49.14 322.35 47.86 319.5 49.72 319.75 46.33 317.09 44.19 320.4 43.38 321.61 40.2"/>
    <polygon class="cls-3" points="389.24 119.06 391.03 121.96 394.43 122.12 392.23 124.72 393.13 128.01 389.98 126.72 387.13 128.59 387.38 125.19 384.72 123.06 388.03 122.25 389.24 119.06"/>
    <polygon class="cls-3" points="184.34 170.74 183.32 173.99 185.41 176.68 182.01 176.71 180.11 179.53 179.02 176.3 175.75 175.37 178.48 173.34 178.36 169.94 181.14 171.91 184.34 170.74"/>
    <polygon class="cls-3" points="497.49 215.72 497.31 219.12 500 221.2 496.71 222.08 495.56 225.28 493.71 222.42 490.31 222.32 492.46 219.68 491.5 216.41 494.68 217.64 497.49 215.72"/>
    <polygon class="cls-3" points="338.79 145 338.6 148.4 341.3 150.49 338 151.36 336.86 154.57 335.01 151.7 331.61 151.6 333.76 148.96 332.8 145.7 335.98 146.92 338.79 145"/>
    <polygon class="cls-3" points="102.64 330.21 101.62 333.46 103.72 336.14 100.32 336.18 98.41 339 97.33 335.77 94.06 334.84 96.79 332.81 96.67 329.4 99.44 331.38 102.64 330.21"/>
    <polygon class="cls-3" points="358.91 392.95 358.72 396.36 361.41 398.44 358.12 399.31 356.98 402.52 355.13 399.66 351.72 399.56 353.87 396.91 352.92 393.65 356.09 394.87 358.91 392.95"/>
    <polygon class="cls-3" points="387.07 334.22 386.88 337.62 389.58 339.7 386.28 340.57 385.14 343.78 383.29 340.92 379.89 340.82 382.04 338.18 381.08 334.91 384.26 336.14 387.07 334.22"/>
    <polygon class="cls-3" points="41.04 312.35 46.61 316.26 52.99 313.89 50.99 320.4 55.22 325.74 48.41 325.85 44.64 331.52 42.43 325.08 35.87 323.24 41.32 319.15 41.04 312.35"/>
    <polygon class="cls-3" points="116.02 81.78 122.39 84.2 127.99 80.33 127.66 87.13 133.07 91.27 126.5 93.05 124.24 99.48 120.52 93.78 113.71 93.62 117.97 88.31 116.02 81.78"/>
    <polygon class="cls-3" points="72.31 166.62 78.67 169.03 84.28 165.16 83.94 171.96 89.36 176.1 82.79 177.88 80.53 184.31 76.8 178.61 69.99 178.45 74.26 173.14 72.31 166.62"/>
    <polygon class="cls-3" points="114.51 268.34 116.83 274.74 123.42 276.45 118.06 280.64 118.46 287.44 112.82 283.63 106.48 286.12 108.36 279.57 104.03 274.31 110.84 274.08 114.51 268.34"/>
    <polygon class="cls-3" points="239.31 20.99 243.15 26.62 249.96 26.65 245.79 32.04 247.86 38.52 241.45 36.22 235.92 40.2 236.13 33.39 230.64 29.36 237.18 27.45 239.31 20.99"/>
    <polygon class="cls-3" points="171.67 369.32 173.99 375.72 180.59 377.44 175.22 381.63 175.62 388.43 169.98 384.61 163.64 387.1 165.52 380.56 161.2 375.3 168 375.06 171.67 369.32"/>
    <polygon class="cls-3" points="463.03 288.38 466.86 294.01 473.67 294.05 469.5 299.43 471.57 305.92 465.16 303.62 459.63 307.6 459.84 300.79 454.35 296.76 460.89 294.85 463.03 288.38"/>
    <polygon class="cls-3" points="463.03 120.44 466.86 126.07 473.67 126.11 469.5 131.49 471.57 137.98 465.16 135.68 459.63 139.66 459.84 132.85 454.35 128.82 460.89 126.91 463.03 120.44"/>
    <polygon class="cls-3" points="394.48 66.9 384.29 66.14 379.14 57.32 375.27 66.77 365.29 68.95 373.09 75.55 372.07 85.71 380.76 80.34 390.11 84.45 387.68 74.53 394.48 66.9"/>
    <polygon class="cls-3" points="417.37 238.19 410.14 245.41 400.1 243.55 404.73 252.65 399.86 261.63 409.95 260.04 416.98 267.45 418.58 257.36 427.81 252.96 418.71 248.32 417.37 238.19"/>
    <polygon class="cls-3" points="272.16 90.91 263.37 96.12 254.1 91.84 256.34 101.8 249.4 109.3 259.57 110.25 264.56 119.16 268.61 109.78 278.63 107.8 270.95 101.05 272.16 90.91"/>
    <polygon class="cls-3" points="232.13 392.95 224.9 400.17 214.85 398.31 219.49 407.42 214.61 416.4 224.7 414.8 231.74 422.21 233.34 412.13 242.56 407.73 233.46 403.08 232.13 392.95"/>
    <polygon class="cls-3" points="111.87 407.58 103.08 412.8 93.81 408.51 96.05 418.48 89.11 425.98 99.28 426.93 104.27 435.84 108.31 426.46 118.33 424.48 110.66 417.73 111.87 407.58"/>
    <g>
      <circle class="cls-9" cx="436.74" cy="185.04" r="19.4"/>
      <path class="cls-2" d="m428.1,177.3c-10.41,10.41-5.07,21.45-5.07,21.45-7.58-7.58-7.58-19.86,0-27.43l5.07,5.98Z"/>
      <path class="cls-9" d="m415.94,164.24c-3.09,3.09,3.72,14.91,15.21,26.39,11.49,11.49,23.3,18.3,26.39,15.21,3.09-3.09-3.72-14.91-15.21-26.39-11.49-11.49-23.3-18.3-26.39-15.21Zm37.24,37.24c-2.47,2.47-11.82-2.89-20.9-11.97-9.08-9.08-14.44-18.44-11.97-20.9,2.47-2.47,11.82,2.89,20.9,11.97,9.08,9.08,14.44,18.44,11.97,20.9Z"/>
      <path class="cls-4" d="m415.94,164.24c-3.09,3.09,3.72,14.91,15.21,26.39,11.49,11.49,23.3,18.3,26.39,15.21,3.09-3.09-3.72-14.91-15.21-26.39-11.49-11.49-23.3-18.3-26.39-15.21Zm37.24,37.24c-2.47,2.47-11.82-2.89-20.9-11.97-9.08-9.08-14.44-18.44-11.97-20.9,2.47-2.47,11.82,2.89,20.9,11.97,9.08,9.08,14.44,18.44,11.97,20.9Z"/>
      <path class="cls-9" d="m423.03,171.32c7.58-7.58,19.86-7.58,27.43,0,7.58,7.58,7.58,19.86,0,27.43"/>
      <path class="cls-2" d="m450.46,171.32s-11.09-5.3-22.36,5.98l-5.07-5.98c7.58-7.58,19.86-7.58,27.43,0"/>
    </g>
    <circle class="cls-12" cx="65.17" cy="220.5" r="18.5"/>
    <path class="cls-2" d="m52.09,207.42c-7.22,7.22-7.22,18.94,0,26.16,0,0-5.09-10.53,4.83-20.46,10.75-10.75,21.32-5.7,21.32-5.7h0c-7.22-7.22-18.94-7.22-26.16,0Z"/>
    <g>
      <circle class="cls-10" cx="187.69" cy="102.51" r="26.05"/>
      <circle class="cls-8" cx="184.24" cy="115.22" r="4.23"/>
      <circle class="cls-8" cx="181.56" cy="102.1" r="1.41"/>
      <circle class="cls-8" cx="187.69" cy="81.26" r="1.41"/>
      <circle class="cls-8" cx="209.86" cy="103.51" r="1.41"/>
      <circle class="cls-8" cx="199.84" cy="105.07" r="3.52"/>
      <path class="cls-8" d="m181.32,93.88c-2.47,0-4.48-2.01-4.48-4.48s2.01-4.48,4.48-4.48,4.48,2.01,4.48,4.48-2.01,4.48-4.48,4.48Zm0-8.45c-2.19,0-3.98,1.78-3.98,3.98s1.78,3.98,3.98,3.98,3.98-1.78,3.98-3.98-1.78-3.98-3.98-3.98Z"/>
      <path class="cls-8" d="m196.22,96.06c-1.69,0-3.07-1.38-3.07-3.07s1.38-3.07,3.07-3.07,3.07,1.38,3.07,3.07-1.38,3.07-3.07,3.07Zm0-5.63c-1.42,0-2.57,1.15-2.57,2.57s1.15,2.57,2.57,2.57,2.57-1.15,2.57-2.57-1.15-2.57-2.57-2.57Z"/>
      <path class="cls-8" d="m198.02,120.41c-1.3,0-2.36-1.06-2.36-2.36s1.06-2.36,2.36-2.36,2.36,1.06,2.36,2.36-1.06,2.36-2.36,2.36Zm0-4.23c-1.03,0-1.86.84-1.86,1.86s.84,1.86,1.86,1.86,1.86-.84,1.86-1.86-.84-1.86-1.86-1.86Z"/>
      <path class="cls-8" d="m174.43,116.88c-.91,0-1.66-.74-1.66-1.66s.74-1.66,1.66-1.66,1.66.74,1.66,1.66-.74,1.66-1.66,1.66Zm0-2.82c-.64,0-1.16.52-1.16,1.16s.52,1.16,1.16,1.16,1.16-.52,1.16-1.16-.52-1.16-1.16-1.16Z"/>
      <path class="cls-8" d="m170.16,107.49c-1.69,0-3.07-1.38-3.07-3.07s1.38-3.07,3.07-3.07,3.07,1.38,3.07,3.07-1.38,3.07-3.07,3.07Zm0-5.63c-1.42,0-2.57,1.15-2.57,2.57s1.15,2.57,2.57,2.57,2.57-1.15,2.57-2.57-1.15-2.57-2.57-2.57Z"/>
      <path class="cls-4" d="m169.27,84.08c-10.17,10.17-10.17,26.67,0,36.85,0,0-7.17-14.83,6.81-28.82,15.15-15.15,30.04-8.03,30.04-8.03h0c-10.17-10.17-26.67-10.17-36.85,0Z"/>
    </g>
  </g>
</svg>