<?xml version="1.0" encoding="utf-8"?>
<svg version="1.1" xmlns:xlink="http://www.w3.org/1999/xlink" width="15px" height="20px" xmlns="http://www.w3.org/2000/svg">
  <g transform="matrix(1 0 0 1 -491 -1273 )">
    <path d="M 14.773776546629726 5.181286549707602  C 14.773776546629726 4.686159844054577  14.577562326869804 4.206627680311885  14.231301939058161 3.8557504873294306  L 11.003385657125268 0.5847953216374322  C 10.657125269313624 0.23391812865496603  10.18775007694675 0.03508771929824661  9.699138196368109 0.03508771929824661  L 1.8467220683287129 0.03508771929824661  C 0.827177593105572 0.03898635477582957  0 0.8771929824561425  0 1.910331384015592  L 0 18.128654970760238  C 0 19.161793372319686  0.827177593105572 20  1.8467220683287129 20  L 12.927054478301013 20  C 13.946598953524154 20  14.773776546629726 19.161793372319686  14.773776546629726 18.128654970760238  L 14.773776546629726 5.181286549707602  Z M 9.84918436441982 2.0623781676413273  L 12.7770083102493 5.029239766081867  L 9.84918436441982 5.029239766081867  L 9.84918436441982 2.0623781676413273  Z M 13 18  L 2 18  L 2 1.910331384015592  L 8.002462296091096 1.910331384015592  L 8.002462296091096 5.964912280701753  C 8.002462296091096 6.483430799220276  8.414127423822707 6.90058479532164  8.92582333025546 6.90058479532164  L 13 6.90058479532164  L 13 18  Z M 10.799476762080632 14.035087719298247  C 11.780547860880269 14.035087719298247  11.876731301939047 12.935672514619887  11.47276084949214 12.526315789473689  C 11.003385657125268 12.058479532163744  9.664512157586943 12.187134502923982  8.995075407817787 12.272904483430796  C 8.333333333333336 11.863547758284597  7.890889504462912 11.298245614035089  7.579255155432432 10.467836257309944  C 7.729301323484144 9.840155945419099  7.9678362573099335 8.88499025341131  7.787011388119417 8.284600389863545  C 7.625423207140651 7.263157894736843  6.332717759310558 7.364522417153989  6.14804555247768 8.054580896686161  C 5.978762696214222 8.682261208576994  6.132656201908275 9.555555555555554  6.417359187442293 10.670565302144245  C 6.0326254232071435 11.602339181286549  5.459372114496766 12.853801169590644  5.055401662049859 13.571150097465887  C 4.285934133579562 13.97270955165692  3.2471529701446626 14.592592592592586  3.0932594644505986 15.372319688109155  C 2.9662973222529954 15.988304093567251  4.093567251461992 17.52436647173489  6.021083410280089 14.155945419103318  C 6.882887042166814 13.86744639376218  7.821637426900582 13.512670565302143  8.652662357648508 13.372319688109155  C 9.379809172052937 13.769980506822616  10.230070791012619 14.035087719298247  10.799476762080632 14.035087719298247  Z M 5.020775623268695 14.194931773879148  C 4.2897814712219136 15.37621832358675  3.8511849799938416 15.586744639376217  3.8511849799938416 15.559454191033137  C 4.047399199753773 15.025341130604284  4.7937827023699615 14.409356725146198  5.020775623268695 14.194931773879148  Z M 7.0598645737149885 9.719298245614038  C 6.890581717451518 9.17738791423002  6.89442905509387 8.128654970760238  6.990612496152659 8.128654970760238  C 7.2753154816866665 8.128654970760238  7.248384118190206 9.380116959064333  7.0598645737149885 9.719298245614038  Z M 8.160203139427512 12.705653021442494  C 7.3599569098184014 12.87329434697856  6.663588796552784 13.216374269005849  6.051862111418891 13.45419103313841  C 6.425053862726984 12.7953216374269  6.744382887042168 12.011695906432749  7.0021545090797135 11.321637426900589  C 7.321483533394886 11.910331384015604  7.729301323484144 12.382066276803119  8.160203139427512 12.705653021442494  Z M 9.67990150815635 12.95516569200779  C 11.03031702062173 12.853801169590644  11.253462603878111 13.165692007797269  11.114958448753454 13.259259259259261  C 11.114958448753454 13.259259259259261  10.922591566635885 13.493177387914228  9.67990150815635 12.95516569200779  Z " fill-rule="nonzero" fill="#0b3d91" stroke="none" transform="matrix(1 0 0 1 491 1273 )" />
  </g>
</svg>